<svg xmlns="http://www.w3.org/2000/svg" width="410" height="188"><path fill="#2C3986" d="M0 0h410v188H0z"/><path fill="#FAFAFC" d="M130 33c45.667 0 45.667 0 55 8 6.186 8.053 8.028 15.922 7 26-1.33 5.134-3.231 9.381-6.812 13.313-2.487 2.415-2.487 2.415-1.977 5.027 2.742 9.243 8.486 17.733 13.537 25.872l1.275 2.1 1.154 1.864C200 117 200 117 200 121h-29l-5-12c-1.403-2.724-2.808-5.4-4.312-8.062C158 94.403 158 94.403 158 91h-2v31h-26z"/><path fill="#FBFBFC" d="m72.408 32.886 3.158.016 3.409.01 3.587.025 3.6.014Q90.581 32.97 95 33c4.063 8.536 6.986 17.432 10 26.375l2.574 7.59q.883 2.6 1.763 5.2a2598 2598 0 0 0 6.147 17.905l1.664 4.807q1.191 3.442 2.39 6.88 1.104 3.167 2.196 6.337l1.257 3.615C124 115 124 115 125 121H99l-6-17H72l-6 17H40c1.315-5.92 2.674-11.436 4.645-17.113l.762-2.23a1613 1613 0 0 1 1.596-4.63 1632 1632 0 0 0 2.39-6.97c2.616-7.624 5.342-15.13 8.597-22.51 1.062-2.677 1.755-5.302 2.385-8.11 1.311-5.718 3.218-11.13 5.25-16.625l.95-2.578c2.701-7.2 2.701-7.2 5.833-7.348"/><path fill="#FCFBFA" d="M327 52c4.024 1.729 7.288 4.42 10.688 7.125l1.89 1.493c4.22 3.36 8.282 6.855 12.277 10.48 6.643 6.124 6.643 6.124 14.217 10.868 2.675 1.444 4.143 2.548 5.928 5.034 1.021 5.843.75 11.461.5 17.375L372 121h-39V96h-10v25h-39l-.562-16.562-.249-5.186c-.303-10.74-.303-10.74 2.613-14.697 2.31-1.783 4.638-3.163 7.198-4.555a79 79 0 0 0 3.555-2.992l1.655-1.433 1.665-1.45A609 609 0 0 1 327 52"/><path fill="#FBFBFC" d="M271.813 38.25 274 40c-.611 5.174-1.703 9.924-3.312 14.875l-.608 2.047c-.63 1.945-.63 1.945-2.08 5.078-2.055 1.027-2.055 1.027-4 1-1.35-.978-2.68-1.982-4-3-7.125-2.763-14.414-2.882-21.812-1.062C233.647 61.876 231.036 64.97 229 70c-1.087 6.797-.842 13.332 2.719 19.348 2.548 3.286 5.543 5.783 9.281 7.652 9.443.888 15.916-.156 24-5l3-1a3136 3136 0 0 1 3.5 10.313l1.012 2.958.957 2.842.888 2.619C275 112 275 112 275 115c-2.812 2.634-5.837 3.856-9.437 5.125l-2.81 1.008c-13.308 4.19-27.24 2.673-39.753-3.133-10.493-5.95-17.557-16.6-21-28-3.127-12.401-1.449-25.265 4.875-36.25 6.457-10.062 15.158-18.387 27.176-21.348 12.844-1.752 26.554-1.433 37.762 5.848"/><path fill="#FBB449" d="M311 78c3.125.375 3.125.375 6 1v6c.834-.095 1.668-.19 2.527-.29 7.036-.692 12.673-.67 19.473 1.29l-.125-2.375C339 81 339 81 341 79c4.556.556 4.556.556 6 2 .04 1.666.043 3.334 0 5h-2v2l5 1c1.425 3.99 2.4 7.805 3 12l4 1v-5l5-1 .188 2.063c.958 3.465 2.571 5.464 4.851 8.19.961 1.747.961 1.747.61 3.962L367 112l-3-1-1 9c-2 .043-4 .04-6 0-2.245-2.245-1.193-7.856-1.23-10.898-.463-3.402-.463-3.402-3.82-5.016L349 103c-.09 1.715-.09 1.715-.184 3.465l-.253 4.472-.12 2.288c-.33 5.662-.33 5.662-1.443 6.775-2.67.141-5.324.042-8 0v-12h-2l1-17-9-1v-2l-10 3-.076 2.554a4032 4032 0 0 1-.296 9.354q-.065 2.026-.125 4.054-.088 2.907-.187 5.815l-.11 3.54C318 119 318 119 317 120h-8l-1-18-7 4 1 10h-2l-1 4h-6v-4h-2v-4l-3-1c.463-2.5 1.109-4.18 2.438-6.375 1.667-2.801 2.621-5.513 3.562-8.625h5v5h4l.516-2.773.734-3.602.703-3.586C306 88 306 88 308.11 86.586L310 86l-.625-2.875L309 80z"/><path fill="#EAE7E8" d="M284 87h1v33l14-1 1-3h2l-2-10 9-5v19l8-1 1-28c9-3 9-3 11-3v2l9 1c1.599 5.915.259 11.153-1 17h2v12l8-1 2-16c6 2 6 2 7 3 .235 2.183.414 4.372.563 6.563l.253 3.628L357 119l6 1v-10h1v10h7V87h1v34h-39V96h-10v25h-39z"/><path fill="#E6E8F1" d="M333 33h39v46c-7-5-7-5-7.795-8.689q.003-2.12.111-4.237l.03-2.265c.04-2.376.127-4.747.216-7.121q.054-2.423.096-4.846c.071-3.95.208-7.891.342-11.842h-25v13c-3.5-1.562-3.5-1.562-7-5z"/><path fill="#E7E8F1" d="M284 33h39v15c-3.5 3.438-3.5 3.438-7 5V40h-25l.176 7.297q.057 3.504.099 7.01.038 2.432.102 4.865c.061 2.333.09 4.666.111 7l.078 2.191c.003 3.834-.263 5.323-2.972 8.126C286 78 286 78 284 78z"/><path fill="#39458D" d="M153 54c8.961-.478 8.961-.478 13.125 1.438 2.371 3.24 2.662 5.405 2.414 9.367C168 67 168 67 165.563 70.062 162 72 162 72 153 72z"/><path fill="#414C92" d="M82 58c3.133 3.133 3.829 7.142 5.125 11.313l.84 2.591.793 2.522.723 2.294C90 79 90 79 90 84H75c1.37-9.086 3.95-17.373 7-26"/><path fill="#BFC3D9" d="M124 131h4l3 10 1-10c6.222-.359 6.222-.359 9.438 1.125C143 134 143 134 143.5 136.938c-.5 3.062-.5 3.062-1.812 5.437-4.299 2.6-8.79 1.93-13.688 1.625v-3h-5v2h-3q.427-2.159.875-4.312l.492-2.426C122 134 122 134 124 131"/><path fill="#B7B6CE" d="M189 131h5l2 5c2.224-1.925 2.224-1.925 3-5h5v13h-4l-1-3-4 1-2-3-1 5h-3z"/><path fill="#D3D9E9" d="M278.438 130.688c3.562.312 3.562.312 5.5 1.437 1.592 2.81 1.515 4.703 1.062 7.875-1.625 2.375-1.625 2.375-4 4-3.062.5-3.062.5-6 0-1.937-1.562-1.937-1.562-3-4 .454-8.769.454-8.769 6.438-9.312"/><path fill="#E9E8EE" d="M116 131c1.938 1.125 1.938 1.125 3 3 .54 3.63.464 5.322-1.625 8.375-3.069 2.1-4.729 2.246-8.375 1.625-2.598-2.252-2.957-3.65-3.375-7.062.375-2.938.375-2.938 1.438-4.813 3.044-1.768 5.5-1.493 8.937-1.125"/><path fill="#FEF8EE" d="M309 101v19h-9v-4h2l-2-10c7.875-5 7.875-5 9-5"/><path fill="#CCD2E4" d="m168 131 3 2c.652 6.842.652 6.842-1.125 10-2.773 1.479-4.787 1.386-7.875 1-1.875-1.062-1.875-1.062-3-3-.633-5.91-.633-5.91 1.125-8.937 2.735-1.55 4.787-1.385 7.875-1.063"/><path fill="#D1D3E2" d="m173 131 5 1c1.313 2.563 1.313 2.563 2 5l3-6h4v13h-3l-1-4-1 3c-1.937-.312-1.937-.312-4-1l-1-3-1 5h-3z"/><path fill="#8D9AC5" d="M343 131h4v10h4v-7h-2v-3h8v3h-2v10h-12z"/><path fill="#FEFBF5" d="M349 103c5.875 1.875 5.875 1.875 7 3 .073 2.353.084 4.708.063 7.063l-.028 3.91L356 120h-8a1180 1180 0 0 1-.062-6.25l-.036-3.516c.08-2.644.312-4.732 1.098-7.234"/><path fill="#F3F1F4" d="M359 131c6.378-.361 6.378-.361 8.938 1.125 1.592 2.81 1.515 4.703 1.062 7.875-1.625 2.375-1.625 2.375-4 4h-6z"/><path fill="#CCCBDD" d="M314 131c4 1 4 1 6 4l1-4h4v13h-4c-1.75-2.5-1.75-2.5-3-5l-1 5h-3z"/><path fill="#CCD" d="M218 131h4l2 4 1-4h4v13h-4l-3-6-1 6h-3z"/><path fill="#99A7CE" d="M62 131h8c.758 4.295 1.242 7.777 0 12-1 1-1 1-4.562 1.063L62 144z"/><path fill="#F1F4F9" d="M52 131c3.375-.125 3.375-.125 7 0 2 2 2 2 2.266 4.094l-.016 2.406.016 2.406C61 142 61 142 59 144c-3.625.125-3.625.125-7 0z"/><path fill="#C5CADE" d="M205 131h4v10h3v-10h4c.081 1.603.14 3.208.188 4.813l.105 2.707C216 141 216 141 214.645 142.8c-2.34 1.707-3.818 1.624-6.645 1.2-1.645-1.2-1.645-1.2-3-3-.293-2.48-.293-2.48-.187-5.187l.082-2.731z"/><path fill="#DDE1EE" d="m335 131 2 1v3h-7l1 5 4 1v-2h-2v-2h5c.125 2.375.125 2.375 0 5-2 2-2 2-5.437 2.375-3.563-.375-3.563-.375-5.5-2-1.358-3.035-1.483-5.083-1.063-8.375 2.224-3.706 4.969-3.343 9-3"/><path fill="#E9EAF1" d="M96 131q3.5-.061 7 0c1 1 1 1 1 4.813l-.031 2.175c.033 2.135.356 3.986 1.031 6.012-1.937-.312-1.937-.312-4-1l-1-3-1 4h-3z"/><path fill="#CED3E5" d="M286 131h4v10h4v-10h3c.081 1.603.14 3.208.188 4.813l.105 2.707C297 141 297 141 295.645 142.8c-2.34 1.707-3.818 1.624-6.645 1.2-1.645-1.2-1.645-1.2-3-3-.293-2.48-.293-2.48-.187-5.187l.082-2.731z"/><path fill="#E5E7F0" d="m43 131 5 1c1.193 3.877 2 6.916 2 11h-3v-2h-4l-1 3h-3q.715-2.688 1.438-5.375l.808-3.023C42 133 42 133 43 131"/><path fill="#EAECF3" d="M124 131h4l3 12h-3v-2h-5v2h-3q.427-2.159.875-4.312l.492-2.426C122 134 122 134 124 131"/><path fill="#DADCE8" d="M302.438 130.75 305 131l2 3-3 1-2-1v2l5 2c-.875 4.875-.875 4.875-2 6-2.437.25-2.437.25-5 0l-2-3 3-1 2 1v-2l-4-2a100 100 0 0 1 0-5c1-1 1-1 3.438-1.25"/><path fill="#EBECF2" d="M260 131h3v5h5v-4h2v11h-2v-4h-5v5h-3z"/><path fill="#D0D6E7" d="M153.625 130.875 157 131v3l-5 1v5l5 1v3c-3.519.32-5.42.372-8.437-1.562C147 140 147 140 147.125 136.375c1.198-4.62 1.665-5.333 6.5-5.5"/><path fill="#DBDEEB" d="M73 131h6v3h-3v2h3v3h-3v2h4v3h-7z"/><path fill="#FBBA59" d="M311 78c3.125.375 3.125.375 6 1l-.062 2.875c-.164 3.032-.164 3.032 1.062 5.125h-10l2-1-.625-2.875L309 80z"/><path fill="#98A0C6" d="M167 152c2.625-.187 2.625-.187 5 0 .75 2.25.75 2.25 1 5-1.625 2.313-1.625 2.313-4 4-2.75.25-2.75.25-5 0 .498-3.735.875-5.812 3-9"/><path fill="#D2D5E5" d="m245 131 4 1v2h2l1-3h2l-2 13h-4l-.402-2.082-.536-2.73-.527-2.708c-.512-2.594-.512-2.594-1.535-5.48M81 131l4 1v2h2l1-3h2l-2 13h-4l-.402-2.082-.535-2.73-.528-2.708c-.512-2.594-.512-2.594-1.535-5.48"/><path fill="#36418A" d="M157 132c3.006 3.006 2.596 5.824 3 10l-3 1v-2l-2.437.063C152 141 152 141 151 140c-.125-2.5-.125-2.5 0-5 1-1 1-1 3.563-1.062L157 134z"/><path fill="#CACEE0" d="M187 152c1.938.375 1.938.375 4 1l1 2 2-3h2l-3 9h-3l-2-3-1 3h-2c.486-3.123.999-5.996 2-9"/><path fill="#B9BED7" d="m130 151 6 1-2 9-4-1-2 1c.875-7.75.875-7.75 2-10"/><path fill="#CBD1E3" d="M238 152h3v4h2l1-4h2l-2 9h-4v-4h-2l-1 4c-1.033-2.788-1.045-3.868-.062-6.75z"/><path fill="#BECBE4" d="M359 131h7c1 2 1 2 .25 5.563L365 140l-3 1v-8l-2-1v11h5v1h-6z"/><path fill="#DDDDE8" d="M349 131h8v3h-2v10h-3v-10h-3z"/><path fill="#BFC4DA" d="M308 131h4v13h-4z"/><path fill="#DCE1ED" d="M235 131h8v3h-2v9h-3v-9h-3z"/><path fill="#DEE5F0" d="M189 131h5v6h-1l-1 7h-3z"/><path fill="#E2E0E8" d="M276 132c3.375-.125 3.375-.125 7 0 2 2 2 2 2.25 4.938C285 140 285 140 283 143l-5-1 4-2-1-5-6-1z"/><path fill="#CBD0E4" d="M205 131h4l.184 2.117.254 2.758c.08.905.162 1.81.246 2.742.186 2.394.186 2.394 1.316 4.383-4.875-.875-4.875-.875-6-2a92 92 0 0 1-.062-5.062l.027-2.786z"/><path fill="#CBCCDD" d="M103 132h1l-.062 3.75c-.006 2.914.132 5.46 1.062 8.25-1.812-.062-1.812-.062-4-1-1.813-3.496-3-6.04-3-10l4 1z"/><path fill="#E4E6EE" d="M164.125 131.875 167 132l-2 1.188c-2.292 1.666-2.292 1.666-2.25 4.5L163 140l4 1v2c-2.875.125-2.875.125-6 0-2-2-2-2-2.25-5.5.322-4.504.808-5.442 5.375-5.625"/><path fill="#D9DBE7" d="M294 131h3c.081 1.603.14 3.208.188 4.813l.105 2.707C297 141 297 141 295.656 142.812c-2.264 1.624-3.94 1.408-6.656 1.188l2-3h3z"/><path fill="#455094" d="M110 134a100 100 0 0 1 5 0c1 1 1 1 1.063 3.563L116 140c-2.375.625-2.375.625-5 1l-2-2c.375-2.625.375-2.625 1-5"/><path fill="#CED2E3" d="m226 152 2 1-2 6c3.299-.723 3.299-.723 4.688-4.062L232 152l2 1-4 8h-6c.875-6.75.875-6.75 2-9"/><path fill="#C8CCDF" d="M151 152h4v2h-3v2h2l-1 5-5 1-1-3 4-1-2-4z"/><path fill="#455094" d="M277 134q2.514.428 5 1v5c-2.375.625-2.375.625-5 1l-2-2c.536-3.536.536-3.536 2-5"/><path fill="#EDF0F6" d="M199 131h4v12h-2v-6l-3 1z"/><path fill="#FAFDFE" d="M63 132h5l-3 1v3h4l1 4-5-2v4l3 1h-5z"/><path fill="#E7E1E7" d="M231 131h3v13h-3z"/><path fill="#4C5293" d="M330 134c3.5.313 3.5.313 7 1l1 2h-5v2h2v2l-5-1a88 88 0 0 1-1-5z"/><path fill="#3C488F" d="M163 134q2.514.428 5 1v5a88 88 0 0 1-5 1c-1-1-1-1-1.125-3.5C162 135 162 135 163 134"/><path fill="#C8CADD" d="M124 131h4l1 7-5 1c-1.125-2.312-1.125-2.312-2-5z"/><path fill="#C7CADD" d="M178 152h5l-3 1v2h2l-1 6h-5c.875-6.75.875-6.75 2-9"/><path fill="#D3D5E4" d="M276 152h6l1 5h-2v-3h-3l-2 6 2 1h-4c.486-3.123.999-5.996 2-9"/><path fill="#C7C9DC" d="M267 152h5v2l-2 1v3h-3v2l2 1h-5z"/><path fill="#CED3E4" d="M210 152h5v2l-3 1 .563 2.438L213 160c-1 1-1 1-3.562 1.063L207 161v-2h4v-2h-2z"/><path fill="#4D589A" d="m297 131 2 1 2 6 2 1v2l-2.25.375c-2.551.58-4.477 1.362-6.75 2.625l2-3c.456-2.509.456-2.509.625-5.187l.227-2.731z"/><path fill="#F7F8FA" d="M268 132h2v11h-2v-4h-5v-3h5z"/><path fill="#D3D6E5" d="M141 152h5l-3 1 1 4h-3v3l2 1h-5z"/><path fill="#32408B" d="m348 131 1 3h2v7h-4c-.125-6.625-.125-6.625 1-10"/><path fill="#DDDFEB" d="M153.563 130.938 157 131v3l-2.875.813c-3.378.937-3.378.937-5.125 4.187q-.061-3.5 0-7c1-1 1-1 4.563-1.062"/><path fill="#F7FAFD" d="M133 132h5l-3 1v8h3v2h-5z"/><path fill="#F9F5F6" d="M344 132h2v9h4v2h-6z"/><path fill="#515898" d="M73 130h11l-3 1 1 3c-.937 2.688-.937 2.688-2 5l-1-3h-3v-2h3v-3h-6z"/><path fill="#FAFAF9" d="M322 132h2v11l-4-1v-3h2z"/><path fill="#E7E7EE" d="m366 133 3 1c.37 5.538.37 5.538-1.5 7.875L366 143v-2l-2-1z"/><path fill="#F8FBFD" d="M226 132h2v11h-3l-1-4h2z"/><path fill="#C6CCE0" d="M200 152h6v2h-3l-2 7h-2z"/><path fill="#EAEAF0" d="M333 137h5c.043 1.666.04 3.334 0 5-1 1-1 1-3.562 1.063L332 143v-2h3v-2h-2z"/><path fill="#757EB1" d="M278 154h3c.688 1.813.688 1.813 1 4-1.437 1.75-1.437 1.75-3 3l-3-1z"/><path fill="#DEE0EC" d="m219 40 2 1-10 10-2-1c6.15-7.483 6.15-7.483 10-10"/><path fill="#ABADCB" d="M60 138c.625 1.875.625 1.875 1 4-2 2-2 2-5.625 2.125L52 144l3-2v-3h3v2h2z"/><path fill="#565E9C" d="M72 131h1v13l-4-1 .5-2.375c.562-2.507.562-2.507.5-4.625h2z"/><path fill="#3F4790" d="M306 132h2v11l-2-1v-4l-4-2v-2l4-1z"/><path fill="#C8D0E4" d="M116 131v1h-5l-.812 1.75c-1.205 2.283-2.596 4.224-4.188 6.25-.358-5.368-.358-5.368 1.063-7.875 2.94-1.707 5.616-1.313 8.937-1.125"/><path fill="#B4B5CF" d="M52 131c3.375-.125 3.375-.125 7 0l2 2-1 3-1-2-1 2h-3v-4z"/><path fill="#D6DAE9" d="M257 152h6l-1.375 1.688c-1.662 2.365-2.646 4.602-3.625 7.312h-2z"/><path fill="#DEDFE9" d="M169 136h2c.222 2.74.348 4.44-1.125 6.813-2.65 1.678-4.807 1.392-7.875 1.187v-1h5l.438-1.812c.45-1.75.99-3.475 1.562-5.188"/><path fill="#41529A" d="m136 134 4 1-1 5-3 1z"/><path fill="#475296" d="m362 134 4 1-1 5-3 1z"/><path fill="#F1F1F5" d="M276 132q3.5-.061 7 0c1 1 1 1 1.063 4.063L284 139l-1.125-1.937c-2.456-2.702-4.32-2.747-7.875-3.063z"/><path fill="#C2C4D9" d="m65 138 1.875.563c2.167.674 2.167.674 4.125-.563l-1 5-5-1z"/><path fill="#EDECF2" d="m58 133 2 1v7h-2v-2l-3-1v-2h3z"/><path fill="#BBBBD3" d="m43 131 5 1 1 5h-2v2h-3l2-7z"/><path fill="#C9CDDF" d="M331.938 130.875C335 131 335 131 337 132v3c-3.735-.498-5.812-.875-9-3 1-1 1-1 3.938-1.125"/><path fill="#FAF8FA" d="M174 132h4v4h-3v7h-1z"/><path fill="#545F9D" d="m238 58 2 1-9 9c0-3.956 1.405-5.109 4-8z"/><path fill="#F3F4F8" d="m160 135 .688 1.875c1.691 2.74 3.304 3.175 6.312 4.125v2c-2 .043-4 .04-6 0-1-1-1-1-1.062-4.562z"/><path fill="#F0F1F5" d="m108 135 4 8h-4a177 177 0 0 1-1-7z"/><path fill="#4F5899" d="M104 133c1.991 2.986 2.941 5.597 4 9h-2l-1 2c-1.984-2.917-1.988-4.124-1.625-7.75z"/><path fill="#F9FBFE" d="M183 132h3v11h-1v-7l-3 1z"/><path fill="#CAC9DB" d="m71 133-1 5-1-2h-4v-3c3-1 3-1 6 0"/><path fill="#BFC5DB" d="M250 152h3l-3 9h-2z"/><path fill="#BDC2D9" d="M160 152h2l-2 9-3-1z"/><path fill="#BBBBD2" d="M244 152h2l-2 9-1-4-2-1h2z"/><path fill="#495193" d="m227 153 4 2-2 4h-3z"/><path fill="#DEDFE9" d="M167 152h5l1 5-2 1v-4h-4z"/><path fill="#686EA5" d="M119 135c1.43 2.354 2.087 3.48 1.625 6.25L120 143l3 1h-4v-2l-2-1z"/><path fill="#676AA1" d="M192 136c2 3 2 3 3 5l3 2-6 1z"/><path fill="#5F6CA8" d="M158 135h1l1 7-3 1v-2h-5v-1h6z"/><path fill="#CDD1E3" d="m116 140 1 3c-2.709 1.354-5.01 1.065-8 1l3-1v-2c2-1 2-1 4-1"/><path fill="#C5CFE5" d="M41 136c2 3 2 3 1.625 5.688L42 144h-3z"/><path fill="#535D9C" d="M330 134c2.343.256 4.678.593 7 1l1 2h-5l-1 2v-4z"/></svg>